<svg width="320" height="134" viewBox="0 0 320 134" fill="none" xmlns="http://www.w3.org/2000/svg">
<mask id="mask0_1_91" style="mask-type:alpha" maskUnits="userSpaceOnUse" x="50" y="43" width="220" height="41">
<path d="M66.8579 83.624C69.6313 83.624 72.1099 82.9653 74.2939 81.648C76.4779 80.3307 78.1939 78.5453 79.4419 76.292C80.7246 74.0387 81.3659 71.5427 81.3659 68.804C81.3659 66.0307 80.7246 63.5347 79.4419 61.316C78.1593 59.0627 76.4259 57.2773 74.2419 55.96C72.0579 54.6427 69.6139 53.984 66.9099 53.984C63.4779 53.984 60.7566 54.9893 58.7459 57V43.636H50.9459V83H58.2259V80.296C59.2313 81.3707 60.4793 82.2027 61.9699 82.792C63.4953 83.3467 65.1246 83.624 66.8579 83.624ZM65.9219 76.604C63.8073 76.604 62.0739 75.8933 60.7219 74.472C59.4046 73.016 58.7459 71.1267 58.7459 68.804C58.7459 66.516 59.4046 64.644 60.7219 63.188C62.0739 61.732 63.8073 61.004 65.9219 61.004C68.0713 61.004 69.8393 61.7493 71.2259 63.24C72.6126 64.696 73.3059 66.5507 73.3059 68.804C73.3059 71.092 72.6126 72.964 71.2259 74.42C69.8393 75.876 68.0713 76.604 65.9219 76.604ZM96.1262 83.624C97.9289 83.624 99.5236 83.2947 100.91 82.636C102.297 81.9427 103.354 80.9027 104.082 79.516V83H111.362V54.608H103.562V71.196C103.562 72.8253 103.077 74.1427 102.106 75.148C101.136 76.1187 99.8876 76.604 98.3622 76.604C96.8369 76.604 95.5889 76.1187 94.6182 75.148C93.6476 74.1427 93.1622 72.8253 93.1622 71.196V54.608H85.3622V71.82C85.3622 75.356 86.2809 78.216 88.1182 80.4C89.9902 82.5493 92.6596 83.624 96.1262 83.624ZM128.191 83.624C131.484 83.624 134.136 82.8093 136.147 81.18C138.158 79.5507 139.163 77.4187 139.163 74.784C139.163 72.7387 138.539 71.0227 137.291 69.636C136.043 68.2147 134.24 67.1573 131.883 66.464L127.359 65.112C125.314 64.5227 124.291 63.6733 124.291 62.564C124.291 61.836 124.568 61.264 125.123 60.848C125.712 60.432 126.51 60.224 127.515 60.224C128.902 60.224 130.132 60.588 131.207 61.316C132.316 62.0093 133.079 62.9453 133.495 64.124L139.267 61.42C138.4 59.0627 136.91 57.2427 134.795 55.96C132.715 54.6427 130.288 53.984 127.515 53.984C125.4 53.984 123.528 54.3653 121.899 55.128C120.27 55.856 119.004 56.8787 118.103 58.196C117.202 59.5133 116.751 61.056 116.751 62.824C116.751 64.8347 117.375 66.5853 118.623 68.076C119.871 69.532 121.656 70.5893 123.979 71.248L128.815 72.6C130.687 73.12 131.623 73.952 131.623 75.096C131.623 76.7947 130.479 77.644 128.191 77.644C126.666 77.644 125.279 77.2107 124.031 76.344C122.783 75.4773 121.795 74.2813 121.067 72.756L115.347 75.46C116.179 77.956 117.739 79.9493 120.027 81.44C122.35 82.896 125.071 83.624 128.191 83.624ZM143.825 52.06H151.625V44.26H143.825V52.06ZM143.825 83H151.625V54.608H143.825V83ZM157.333 83H165.133V66.412C165.133 64.7827 165.618 63.4827 166.589 62.512C167.559 61.5067 168.807 61.004 170.333 61.004C171.858 61.004 173.106 61.5067 174.077 62.512C175.047 63.4827 175.533 64.7827 175.533 66.412V83H183.333V64.748C183.333 62.5987 182.882 60.7267 181.981 59.132C181.079 57.5027 179.814 56.2373 178.185 55.336C176.59 54.4347 174.718 53.984 172.569 53.984C170.766 53.984 169.171 54.3307 167.785 55.024C166.398 55.6827 165.341 56.7053 164.613 58.092V54.608H157.333V83ZM202.138 83.624C205.05 83.624 207.598 83 209.782 81.752C211.966 80.4693 213.491 78.788 214.358 76.708L208.118 73.744C207.563 74.7147 206.783 75.4773 205.778 76.032C204.807 76.5867 203.628 76.864 202.242 76.864C200.335 76.864 198.775 76.3267 197.562 75.252C196.348 74.1773 195.638 72.756 195.43 70.988H215.294C215.432 70.6067 215.519 70.156 215.554 69.636C215.623 69.0813 215.658 68.5267 215.658 67.972C215.658 65.3373 215.103 62.98 213.994 60.9C212.919 58.7853 211.342 57.104 209.262 55.856C207.182 54.608 204.634 53.984 201.618 53.984C198.914 53.984 196.487 54.6253 194.338 55.908C192.188 57.1907 190.472 58.9413 189.19 61.16C187.942 63.3787 187.318 65.9093 187.318 68.752C187.318 71.4907 187.924 73.9867 189.138 76.24C190.351 78.4933 192.067 80.296 194.286 81.648C196.504 82.9653 199.122 83.624 202.138 83.624ZM201.618 60.224C203.212 60.224 204.53 60.692 205.57 61.628C206.61 62.564 207.216 63.7773 207.39 65.268H195.586C195.967 63.6387 196.678 62.3907 197.718 61.524C198.792 60.6573 200.092 60.224 201.618 60.224ZM231.379 83.624C234.672 83.624 237.324 82.8093 239.335 81.18C241.345 79.5507 242.351 77.4187 242.351 74.784C242.351 72.7387 241.727 71.0227 240.479 69.636C239.231 68.2147 237.428 67.1573 235.071 66.464L230.547 65.112C228.501 64.5227 227.479 63.6733 227.479 62.564C227.479 61.836 227.756 61.264 228.311 60.848C228.9 60.432 229.697 60.224 230.703 60.224C232.089 60.224 233.32 60.588 234.395 61.316C235.504 62.0093 236.267 62.9453 236.683 64.124L242.455 61.42C241.588 59.0627 240.097 57.2427 237.983 55.96C235.903 54.6427 233.476 53.984 230.703 53.984C228.588 53.984 226.716 54.3653 225.087 55.128C223.457 55.856 222.192 56.8787 221.291 58.196C220.389 59.5133 219.939 61.056 219.939 62.824C219.939 64.8347 220.563 66.5853 221.811 68.076C223.059 69.532 224.844 70.5893 227.167 71.248L232.003 72.6C233.875 73.12 234.811 73.952 234.811 75.096C234.811 76.7947 233.667 77.644 231.379 77.644C229.853 77.644 228.467 77.2107 227.219 76.344C225.971 75.4773 224.983 74.2813 224.255 72.756L218.535 75.46C219.367 77.956 220.927 79.9493 223.215 81.44C225.537 82.896 228.259 83.624 231.379 83.624ZM258.14 83.624C261.434 83.624 264.086 82.8093 266.096 81.18C268.107 79.5507 269.112 77.4187 269.112 74.784C269.112 72.7387 268.488 71.0227 267.24 69.636C265.992 68.2147 264.19 67.1573 261.832 66.464L257.308 65.112C255.263 64.5227 254.24 63.6733 254.24 62.564C254.24 61.836 254.518 61.264 255.072 60.848C255.662 60.432 256.459 60.224 257.464 60.224C258.851 60.224 260.082 60.588 261.156 61.316C262.266 62.0093 263.028 62.9453 263.444 64.124L269.216 61.42C268.35 59.0627 266.859 57.2427 264.744 55.96C262.664 54.6427 260.238 53.984 257.464 53.984C255.35 53.984 253.478 54.3653 251.848 55.128C250.219 55.856 248.954 56.8787 248.052 58.196C247.151 59.5133 246.7 61.056 246.7 62.824C246.7 64.8347 247.324 66.5853 248.572 68.076C249.82 69.532 251.606 70.5893 253.928 71.248L258.764 72.6C260.636 73.12 261.572 73.952 261.572 75.096C261.572 76.7947 260.428 77.644 258.14 77.644C256.615 77.644 255.228 77.2107 253.98 76.344C252.732 75.4773 251.744 74.2813 251.016 72.756L245.296 75.46C246.128 77.956 247.688 79.9493 249.976 81.44C252.299 82.896 255.02 83.624 258.14 83.624Z" fill="#18181B"/>
<path d="M74.2939 81.648L70.162 74.7977L70.162 74.7977L74.2939 81.648ZM79.4419 76.292L72.4894 72.3344L72.4663 72.3751L72.4436 72.416L79.4419 76.292ZM79.4419 61.316L72.4894 65.2736L72.5027 65.2968L72.5161 65.32L79.4419 61.316ZM74.2419 55.96L78.3739 49.1097L78.3739 49.1097L74.2419 55.96ZM58.7459 57H50.7459V76.3137L64.4028 62.6569L58.7459 57ZM58.7459 43.636H66.7459V35.636H58.7459V43.636ZM50.9459 43.636V35.636H42.9459V43.636H50.9459ZM50.9459 83H42.9459V91H50.9459V83ZM58.2259 83V91H66.2259V83H58.2259ZM58.2259 80.296L64.0681 74.8307L50.2259 60.0339V80.296H58.2259ZM61.9699 82.792L59.0287 90.2317L59.1318 90.2725L59.236 90.3103L61.9699 82.792ZM60.7219 74.472L54.7897 79.8393L54.8566 79.9134L54.9255 79.9857L60.7219 74.472ZM60.7219 63.188L54.8596 57.7444L54.8244 57.7823L54.7897 57.8207L60.7219 63.188ZM71.2259 63.24L65.3684 68.6888L65.4004 68.7232L65.4328 68.7572L71.2259 63.24ZM71.2259 74.42L77.019 79.9372L77.019 79.9372L71.2259 74.42ZM66.8579 91.624C70.9559 91.624 74.8868 90.633 78.4259 88.4983L70.162 74.7977C69.3331 75.2977 68.3066 75.624 66.8579 75.624V91.624ZM78.4259 88.4983C81.8217 86.4501 84.5207 83.6338 86.4403 80.168L72.4436 72.416C71.8671 73.4568 71.1342 74.2113 70.162 74.7977L78.4259 88.4983ZM86.3945 80.2496C88.4026 76.7218 89.3659 72.8494 89.3659 68.804H73.3659C73.3659 70.2359 73.0466 71.3556 72.4894 72.3344L86.3945 80.2496ZM89.3659 68.804C89.3659 64.744 88.4115 60.847 86.3678 57.312L72.5161 65.32C73.0377 66.2224 73.3659 67.3173 73.3659 68.804H89.3659ZM86.3945 57.3584C84.4463 53.936 81.7503 51.1462 78.3739 49.1097L70.11 62.8103C71.1016 63.4085 71.8722 64.1893 72.4894 65.2736L86.3945 57.3584ZM78.3739 49.1097C74.867 46.9944 70.9789 45.984 66.9099 45.984V61.984C68.2489 61.984 69.2489 62.2909 70.11 62.8103L78.3739 49.1097ZM66.9099 45.984C61.8253 45.984 56.9021 47.5302 53.0891 51.3431L64.4028 62.6569C64.6111 62.4485 65.1305 61.984 66.9099 61.984V45.984ZM66.7459 57V43.636H50.7459V57H66.7459ZM58.7459 35.636H50.9459V51.636H58.7459V35.636ZM42.9459 43.636V83H58.9459V43.636H42.9459ZM50.9459 91H58.2259V75H50.9459V91ZM66.2259 83V80.296H50.2259V83H66.2259ZM52.3838 85.7613C54.2682 87.7757 56.5365 89.2464 59.0287 90.2317L64.9112 75.3523C64.422 75.1589 64.1943 74.9657 64.0681 74.8307L52.3838 85.7613ZM59.236 90.3103C61.6956 91.2047 64.2559 91.624 66.8579 91.624V75.624C65.9933 75.624 65.295 75.4886 64.7039 75.2737L59.236 90.3103ZM65.9219 68.604C65.772 68.604 65.8581 68.5818 66.0708 68.669C66.1703 68.7098 66.2681 68.7629 66.3553 68.8232C66.4417 68.8829 66.4954 68.9341 66.5184 68.9583L54.9255 79.9857C57.914 83.1275 61.8065 84.604 65.9219 84.604V68.604ZM66.6542 69.1047C66.6825 69.136 66.7156 69.1793 66.7456 69.2301C66.7754 69.2806 66.7899 69.3175 66.794 69.3295C66.8031 69.3554 66.7459 69.2101 66.7459 68.804H50.7459C50.7459 72.726 51.9044 76.6504 54.7897 79.8393L66.6542 69.1047ZM66.7459 68.804C66.7459 68.4284 66.7993 68.3027 66.7864 68.3392C66.7806 68.3558 66.7651 68.3937 66.7363 68.4423C66.7073 68.4911 66.6771 68.53 66.6542 68.5553L54.7897 57.8207C51.9247 60.9872 50.7459 64.8812 50.7459 68.804H66.7459ZM66.5843 68.6316C66.5665 68.6508 66.516 68.701 66.4295 68.7621C66.342 68.8241 66.2407 68.8809 66.1338 68.9259C65.9044 69.0222 65.7959 69.004 65.9219 69.004V53.004C61.7432 53.004 57.8311 54.5443 54.8596 57.7444L66.5843 68.6316ZM65.9219 69.004C66.0574 69.004 65.9635 69.0238 65.7523 68.9347C65.6548 68.8936 65.5643 68.8424 65.4883 68.7885C65.4135 68.7355 65.3747 68.6955 65.3684 68.6888L77.0834 57.7912C74.091 54.5744 70.1542 53.004 65.9219 53.004V69.004ZM65.4328 68.7572C65.4218 68.7456 65.394 68.7137 65.3619 68.6627C65.3297 68.6114 65.3066 68.5621 65.2924 68.5243C65.2787 68.4877 65.2811 68.4821 65.2875 68.5201C65.2942 68.5597 65.3059 68.6509 65.3059 68.804H81.3059C81.3059 64.7653 79.9976 60.8502 77.019 57.7228L65.4328 68.7572ZM65.3059 68.804C65.3059 68.9722 65.2932 69.0764 65.2848 69.1268C65.2766 69.1757 65.272 69.1777 65.2839 69.1455C65.2963 69.112 65.3186 69.0634 65.352 69.01C65.3853 68.9567 65.4161 68.9203 65.4328 68.9028L77.019 79.9372C80.0202 76.786 81.3059 72.8403 81.3059 68.804H65.3059ZM65.4328 68.9028C65.4441 68.8909 65.486 68.8498 65.5608 68.798C65.6365 68.7455 65.7236 68.6978 65.8139 68.6606C66.009 68.5803 66.081 68.604 65.9219 68.604V84.604C70.0922 84.604 74.01 83.0967 77.019 79.9372L65.4328 68.9028ZM100.91 82.636L104.343 89.8622L104.416 89.8276L104.488 89.7914L100.91 82.636ZM104.082 79.516H112.082L96.999 75.7973L104.082 79.516ZM104.082 83H96.0822V91H104.082V83ZM111.362 83V91H119.362V83H111.362ZM111.362 54.608H119.362V46.608H111.362V54.608ZM103.562 54.608V46.608H95.5622V54.608H103.562ZM102.106 75.148L107.763 80.8049L107.813 80.7552L107.861 80.7048L102.106 75.148ZM94.6182 75.148L88.863 80.7048L88.9117 80.7552L88.9614 80.8049L94.6182 75.148ZM93.1622 54.608H101.162V46.608H93.1622V54.608ZM85.3622 54.608V46.608H77.3622V54.608H85.3622ZM88.1182 80.4L81.9964 85.5501L82.0405 85.6026L82.0856 85.6542L88.1182 80.4ZM96.1262 91.624C98.9108 91.624 101.712 91.1117 104.343 89.8622L97.4778 75.4098C97.3349 75.4776 96.9469 75.624 96.1262 75.624V91.624ZM104.488 89.7914C107.391 88.34 109.667 86.0897 111.165 83.2347L96.999 75.7973C96.9987 75.798 97.0387 75.7257 97.1333 75.6326C97.2285 75.5389 97.3108 75.4914 97.3325 75.4806L104.488 89.7914ZM96.0822 79.516V83H112.082V79.516H96.0822ZM104.082 91H111.362V75H104.082V91ZM119.362 83V54.608H103.362V83H119.362ZM111.362 46.608H103.562V62.608H111.362V46.608ZM95.5622 54.608V71.196H111.562V54.608H95.5622ZM95.5622 71.196C95.5622 71.2159 95.5601 70.997 95.6915 70.6404C95.8308 70.2621 96.0615 69.8911 96.351 69.5912L107.861 80.7048C110.51 77.9618 111.562 74.529 111.562 71.196H95.5622ZM96.4494 69.4911C96.7282 69.2123 97.1064 68.9536 97.5427 68.784C97.9625 68.6207 98.2697 68.604 98.3622 68.604V84.604C101.751 84.604 105.119 83.4491 107.763 80.8049L96.4494 69.4911ZM98.3622 68.604C98.4547 68.604 98.762 68.6207 99.1818 68.784C99.6181 68.9536 99.9963 69.2123 100.275 69.4911L88.9614 80.8049C91.6057 83.4491 94.9735 84.604 98.3622 84.604V68.604ZM100.373 69.5912C100.663 69.8911 100.894 70.2621 101.033 70.6404C101.164 70.997 101.162 71.2159 101.162 71.196H85.1622C85.1622 74.529 86.2146 77.9618 88.863 80.7048L100.373 69.5912ZM101.162 71.196V54.608H85.1622V71.196H101.162ZM93.1622 46.608H85.3622V62.608H93.1622V46.608ZM77.3622 54.608V71.82H93.3622V54.608H77.3622ZM77.3622 71.82C77.3622 76.7752 78.6769 81.6043 81.9964 85.5501L94.24 75.2499C93.8848 74.8277 93.3622 73.9368 93.3622 71.82H77.3622ZM82.0856 85.6542C85.8018 89.921 90.8916 91.624 96.1262 91.624V75.624C95.2121 75.624 94.724 75.4822 94.512 75.3969C94.3374 75.3266 94.249 75.2584 94.1509 75.1458L82.0856 85.6542ZM136.147 81.18L141.184 87.3955L141.184 87.3955L136.147 81.18ZM137.291 69.636L131.28 74.9144L131.312 74.9513L131.345 74.9877L137.291 69.636ZM131.883 66.464L129.592 74.129L129.609 74.134L129.626 74.1389L131.883 66.464ZM127.359 65.112L129.65 57.447L129.612 57.4357L129.574 57.4247L127.359 65.112ZM125.123 60.848L120.51 54.3123L120.415 54.3788L120.323 54.448L125.123 60.848ZM131.207 61.316L126.72 67.9393L126.842 68.0219L126.967 68.1L131.207 61.316ZM133.495 64.124L125.951 66.7866L128.891 75.1153L136.889 71.3685L133.495 64.124ZM139.267 61.42L142.661 68.6645L149.309 65.55L146.776 58.6595L139.267 61.42ZM134.795 55.96L130.515 62.7186L130.58 62.7599L130.646 62.8001L134.795 55.96ZM121.899 55.128L125.163 62.4321L125.227 62.4034L125.291 62.3735L121.899 55.128ZM118.623 68.076L112.489 73.2115L112.519 73.2471L112.549 73.2823L118.623 68.076ZM123.979 71.248L121.797 78.9445L121.811 78.9486L121.825 78.9526L123.979 71.248ZM128.815 72.6L126.661 80.3046L126.674 80.3081L128.815 72.6ZM124.031 76.344L119.468 82.915L119.468 82.915L124.031 76.344ZM121.067 72.756L128.287 69.3102L124.854 62.117L117.648 65.5234L121.067 72.756ZM115.347 75.46L111.928 68.2274L105.514 71.2594L107.758 77.9898L115.347 75.46ZM120.027 81.44L115.66 88.1429L115.719 88.1811L115.778 88.2183L120.027 81.44ZM128.191 91.624C132.809 91.624 137.397 90.4637 141.184 87.3955L131.11 74.9645C130.875 75.155 130.16 75.624 128.191 75.624V91.624ZM141.184 87.3955C145.108 84.2156 147.163 79.7807 147.163 74.784H131.163C131.163 74.9326 131.149 75.0039 131.147 75.0148C131.145 75.0229 131.151 74.9945 131.173 74.947C131.196 74.8991 131.218 74.8678 131.225 74.8592C131.231 74.8526 131.202 74.8905 131.11 74.9645L141.184 87.3955ZM147.163 74.784C147.163 70.9685 145.939 67.2863 143.237 64.2843L131.345 74.9877C131.328 74.9688 131.296 74.9294 131.26 74.8706C131.225 74.8114 131.196 74.751 131.177 74.6969C131.157 74.6437 131.153 74.615 131.154 74.621C131.155 74.6284 131.163 74.6798 131.163 74.784H147.163ZM143.303 64.3576C140.797 61.5042 137.523 59.784 134.14 58.7891L129.626 74.1389C130.285 74.3328 130.705 74.5308 130.956 74.6776C131.197 74.8189 131.275 74.9095 131.28 74.9144L143.303 64.3576ZM134.174 58.799L129.65 57.447L125.068 72.777L129.592 74.129L134.174 58.799ZM129.574 57.4247C129.048 57.2732 129.473 57.3005 130.169 57.8787C130.568 58.2094 131.122 58.7785 131.574 59.6446C132.046 60.5476 132.291 61.5575 132.291 62.564H116.291C116.291 65.9737 118.006 68.5757 119.947 70.1873C121.666 71.6148 123.625 72.3615 125.144 72.7993L129.574 57.4247ZM132.291 62.564C132.291 63.2331 132.158 64.1294 131.698 65.0792C131.231 66.042 130.571 66.7618 129.923 67.248L120.323 54.448C117.639 56.461 116.291 59.4651 116.291 62.564H132.291ZM129.737 67.3837C128.539 68.2293 127.531 68.224 127.515 68.224V52.224C125.489 52.224 122.886 52.6347 120.51 54.3123L129.737 67.3837ZM127.515 68.224C127.502 68.224 127.387 68.2211 127.209 68.1685C127.027 68.1145 126.856 68.0313 126.72 67.9393L135.694 54.6926C133.203 53.0052 130.387 52.224 127.515 52.224V68.224ZM126.967 68.1C126.839 68.0202 126.627 67.8585 126.409 67.5914C126.189 67.3205 126.039 67.0344 125.951 66.7866L141.039 61.4614C139.991 58.4906 138.015 56.1372 135.447 54.532L126.967 68.1ZM136.889 71.3685L142.661 68.6645L135.873 54.1755L130.101 56.8795L136.889 71.3685ZM146.776 58.6595C145.294 54.6296 142.634 51.3583 138.944 49.1199L130.646 62.8001C131.185 63.127 131.507 63.4957 131.758 64.1805L146.776 58.6595ZM139.076 49.2014C135.558 46.9738 131.607 45.984 127.515 45.984V61.984C128.97 61.984 129.872 62.3115 130.515 62.7186L139.076 49.2014ZM127.515 45.984C124.432 45.984 121.369 46.5431 118.508 47.8825L125.291 62.3735C125.688 62.1875 126.369 61.984 127.515 61.984V45.984ZM118.636 47.8239C115.821 49.0815 113.332 51.0019 111.501 53.6785L124.706 62.7135C124.709 62.7088 124.717 62.6951 124.757 62.6629C124.801 62.6271 124.92 62.5404 125.163 62.4321L118.636 47.8239ZM111.501 53.6785C109.592 56.4683 108.751 59.6247 108.751 62.824H124.751C124.751 62.7221 124.758 62.6555 124.763 62.6193C124.767 62.5837 124.771 62.5739 124.768 62.5843C124.765 62.5952 124.758 62.6171 124.744 62.6453C124.731 62.6735 124.717 62.6971 124.706 62.7135L111.501 53.6785ZM108.751 62.824C108.751 66.6425 109.991 70.2283 112.489 73.2115L124.757 62.9405C124.731 62.9087 124.726 62.8979 124.732 62.9083C124.738 62.9192 124.747 62.9377 124.755 62.959C124.762 62.9801 124.763 62.9876 124.76 62.974C124.758 62.9594 124.751 62.9118 124.751 62.824H108.751ZM112.549 73.2823C115.057 76.2086 118.352 77.9676 121.797 78.9445L126.162 63.5515C125.559 63.3805 125.186 63.2029 124.975 63.0776C124.773 62.9584 124.707 62.8808 124.697 62.8697L112.549 73.2823ZM121.825 78.9526L126.661 80.3046L130.969 64.8954L126.133 63.5434L121.825 78.9526ZM126.674 80.3081C127.019 80.404 126.416 80.3129 125.606 79.5933C125.153 79.1903 124.623 78.577 124.218 77.7212C123.804 76.8479 123.623 75.9381 123.623 75.096H139.623C139.623 72.0069 138.231 69.4076 136.236 67.6347C134.49 66.0831 132.483 65.316 130.956 64.8919L126.674 80.3081ZM123.623 75.096C123.623 74.6303 123.702 73.8439 124.11 72.934C124.539 71.9785 125.207 71.1695 125.996 70.5837C127.415 69.5308 128.578 69.644 128.191 69.644V85.644C130.092 85.644 132.972 85.3325 135.534 83.4303C138.543 81.1966 139.623 77.9279 139.623 75.096H123.623ZM128.191 69.644C128.19 69.644 128.211 69.644 128.251 69.6499C128.291 69.6558 128.34 69.6664 128.393 69.6832C128.51 69.7198 128.582 69.7643 128.594 69.773L119.468 82.915C122.061 84.7159 125.041 85.644 128.191 85.644V69.644ZM128.594 69.773C128.583 69.7649 128.561 69.749 128.522 69.7019C128.48 69.6514 128.394 69.5344 128.287 69.3102L113.847 76.2018C115.105 78.8378 116.953 81.1687 119.468 82.915L128.594 69.773ZM117.648 65.5234L111.928 68.2274L118.766 82.6926L124.486 79.9886L117.648 65.5234ZM107.758 77.9898C109.184 82.27 111.919 85.7057 115.66 88.1429L124.394 74.7371C123.559 74.193 123.174 73.642 122.937 72.9302L107.758 77.9898ZM115.778 88.2183C119.543 90.5785 123.781 91.624 128.191 91.624V75.624C126.361 75.624 125.156 75.2135 124.276 74.6617L115.778 88.2183ZM143.825 52.06H135.825V60.06H143.825V52.06ZM151.625 52.06V60.06H159.625V52.06H151.625ZM151.625 44.26H159.625V36.26H151.625V44.26ZM143.825 44.26V36.26H135.825V44.26H143.825ZM143.825 83H135.825V91H143.825V83ZM151.625 83V91H159.625V83H151.625ZM151.625 54.608H159.625V46.608H151.625V54.608ZM143.825 54.608V46.608H135.825V54.608H143.825ZM143.825 60.06H151.625V44.06H143.825V60.06ZM159.625 52.06V44.26H143.625V52.06H159.625ZM151.625 36.26H143.825V52.26H151.625V36.26ZM135.825 44.26V52.06H151.825V44.26H135.825ZM143.825 91H151.625V75H143.825V91ZM159.625 83V54.608H143.625V83H159.625ZM151.625 46.608H143.825V62.608H151.625V46.608ZM135.825 54.608V83H151.825V54.608H135.825ZM157.333 83H149.333V91H157.333V83ZM165.133 83V91H173.133V83H165.133ZM166.589 62.512L172.246 68.1689L172.295 68.1192L172.344 68.0688L166.589 62.512ZM174.077 62.512L168.321 68.0688L168.37 68.1192L168.42 68.1689L174.077 62.512ZM175.533 83H167.533V91H175.533V83ZM183.333 83V91H191.333V83H183.333ZM181.981 59.132L174.98 63.0045L174.998 63.0366L175.016 63.0685L181.981 59.132ZM178.185 55.336L174.248 62.3005L174.28 62.3185L174.312 62.3363L178.185 55.336ZM167.785 55.024L171.217 62.2502L171.29 62.2156L171.362 62.1794L167.785 55.024ZM164.613 58.092H156.613L171.696 61.8107L164.613 58.092ZM164.613 54.608H172.613V46.608H164.613V54.608ZM157.333 54.608V46.608H149.333V54.608H157.333ZM157.333 91H165.133V75H157.333V91ZM173.133 83V66.412H157.133V83H173.133ZM173.133 66.412C173.133 66.3896 173.136 66.627 172.991 67.013C172.838 67.4246 172.58 67.8348 172.246 68.1689L160.932 56.8551C158.184 59.6026 157.133 63.0869 157.133 66.412H173.133ZM172.344 68.0688C172.079 68.3428 171.701 68.6167 171.242 68.8017C170.797 68.9808 170.458 69.004 170.333 69.004V53.004C166.857 53.004 163.458 54.2371 160.833 56.9552L172.344 68.0688ZM170.333 69.004C170.207 69.004 169.868 68.9808 169.424 68.8017C168.964 68.6167 168.586 68.3428 168.321 68.0688L179.832 56.9552C177.207 54.2371 173.808 53.004 170.333 53.004V69.004ZM168.42 68.1689C168.086 67.8348 167.828 67.4246 167.674 67.013C167.53 66.627 167.533 66.3896 167.533 66.412H183.533C183.533 63.0869 182.481 59.6026 179.734 56.8551L168.42 68.1689ZM167.533 66.412V83H183.533V66.412H167.533ZM175.533 91H183.333V75H175.533V91ZM191.333 83V64.748H175.333V83H191.333ZM191.333 64.748C191.333 61.4598 190.635 58.1845 188.945 55.1955L175.016 63.0685C175.129 63.2688 175.333 63.7375 175.333 64.748H191.333ZM188.981 55.2595C187.352 52.3143 185.002 49.965 182.057 48.3357L174.312 62.3363C174.626 62.5097 174.807 62.691 174.98 63.0045L188.981 55.2595ZM182.121 48.3715C179.132 46.6821 175.857 45.984 172.569 45.984V61.984C173.579 61.984 174.048 62.1873 174.248 62.3005L182.121 48.3715ZM172.569 45.984C169.726 45.984 166.872 46.536 164.207 47.8686L171.362 62.1794C171.471 62.1253 171.806 61.984 172.569 61.984V45.984ZM164.352 47.7978C161.367 49.2156 159.045 51.4865 157.529 54.3733L171.696 61.8107C171.69 61.8223 171.635 61.9175 171.513 62.0353C171.39 62.1544 171.274 62.223 171.217 62.2502L164.352 47.7978ZM172.613 58.092V54.608H156.613V58.092H172.613ZM164.613 46.608H157.333V62.608H164.613V46.608ZM149.333 54.608V83H165.333V54.608H149.333ZM209.782 81.752L213.751 88.6979L213.792 88.6744L213.833 88.6503L209.782 81.752ZM214.358 76.708L221.742 79.7849L224.673 72.7512L217.79 69.4818L214.358 76.708ZM208.118 73.744L211.55 66.5178L204.851 63.3358L201.172 69.7749L208.118 73.744ZM205.778 76.032L201.913 69.0274L201.86 69.0563L201.808 69.0861L205.778 76.032ZM197.562 75.252L192.257 81.2407L192.257 81.2407L197.562 75.252ZM195.43 70.988V62.988H186.433L187.484 71.9227L195.43 70.988ZM215.294 70.988V78.988H220.897L222.812 73.7219L215.294 70.988ZM215.554 69.636L207.615 68.6437L207.587 68.8732L207.571 69.1039L215.554 69.636ZM213.994 60.9L206.862 64.5244L206.898 64.5949L206.935 64.6647L213.994 60.9ZM209.262 55.856L205.146 62.7159L205.146 62.7159L209.262 55.856ZM194.338 55.908L198.437 62.7777L198.437 62.7777L194.338 55.908ZM189.19 61.16L182.264 57.156L182.24 57.1968L182.217 57.2379L189.19 61.16ZM189.138 76.24L196.181 72.4472L196.181 72.4472L189.138 76.24ZM194.286 81.648L190.123 88.4795L190.162 88.5034L190.201 88.5268L194.286 81.648ZM205.57 61.628L200.218 67.5744L200.218 67.5744L205.57 61.628ZM207.39 65.268V73.268H216.374L215.336 64.344L207.39 65.268ZM195.586 65.268L187.796 63.4449L185.497 73.268H195.586V65.268ZM197.718 61.524L192.696 55.2967L192.645 55.3371L192.596 55.3782L197.718 61.524ZM202.138 91.624C206.22 91.624 210.179 90.739 213.751 88.6979L205.812 74.8061C205.016 75.261 203.879 75.624 202.138 75.624V91.624ZM213.833 88.6503C217.318 86.6033 220.126 83.6631 221.742 79.7849L206.973 73.6311C206.856 73.9129 206.613 74.3353 205.73 74.8537L213.833 88.6503ZM217.79 69.4818L211.55 66.5178L204.685 80.9702L210.925 83.9342L217.79 69.4818ZM201.172 69.7749C201.253 69.6328 201.371 69.4736 201.524 69.3239C201.676 69.1753 201.817 69.0801 201.913 69.0274L209.642 83.0366C211.897 81.7924 213.759 79.9951 215.064 77.7131L201.172 69.7749ZM201.808 69.0861C202.044 68.9513 202.235 68.8917 202.333 68.8687C202.424 68.8474 202.405 68.864 202.242 68.864V84.864C204.689 84.864 207.309 84.3709 209.747 82.9779L201.808 69.0861ZM202.242 68.864C202.039 68.864 202.07 68.836 202.247 68.8971C202.334 68.9272 202.441 68.9736 202.557 69.0408C202.673 69.1081 202.777 69.1847 202.866 69.2633L192.257 81.2407C195.185 83.8341 198.745 84.864 202.242 84.864V68.864ZM202.866 69.2633C203.009 69.3901 203.163 69.5799 203.274 69.8023C203.38 70.0137 203.383 70.127 203.375 70.0533L187.484 71.9227C187.898 75.4352 189.424 78.7309 192.257 81.2407L202.866 69.2633ZM195.43 78.988H215.294V62.988H195.43V78.988ZM222.812 73.7219C223.269 72.4643 223.464 71.2384 223.536 70.1681L207.571 69.1039C207.573 69.0736 207.595 68.749 207.775 68.2541L222.812 73.7219ZM223.492 70.6283C223.602 69.747 223.658 68.861 223.658 67.972H207.658C207.658 68.1924 207.644 68.4157 207.615 68.6437L223.492 70.6283ZM223.658 67.972C223.658 64.1811 222.85 60.5049 221.052 57.1353L206.935 64.6647C207.356 65.4551 207.658 66.4935 207.658 67.972H223.658ZM221.125 57.2756C219.353 53.7888 216.716 50.9992 213.378 48.9961L205.146 62.7159C205.967 63.2088 206.484 63.7819 206.862 64.5244L221.125 57.2756ZM213.378 48.9961C209.785 46.8403 205.733 45.984 201.618 45.984V61.984C203.534 61.984 204.579 62.3757 205.146 62.7159L213.378 48.9961ZM201.618 45.984C197.59 45.984 193.726 46.9567 190.238 49.0383L198.437 62.7777C199.248 62.294 200.237 61.984 201.618 61.984V45.984ZM190.238 49.0383C186.889 51.0369 184.212 53.7863 182.264 57.156L196.115 65.164C196.733 64.0964 197.488 63.3444 198.437 62.7777L190.238 49.0383ZM182.217 57.2379C180.219 60.789 179.318 64.6991 179.318 68.752H195.318C195.318 67.1196 195.664 65.9683 196.162 65.0821L182.217 57.2379ZM179.318 68.752C179.318 72.7191 180.209 76.5325 182.094 80.0328L196.181 72.4472C195.639 71.4408 195.318 70.2623 195.318 68.752H179.318ZM182.094 80.0328C183.991 83.5567 186.71 86.4002 190.123 88.4795L198.449 74.8165C197.423 74.1918 196.711 73.43 196.181 72.4472L182.094 80.0328ZM190.201 88.5268C193.851 90.694 197.93 91.624 202.138 91.624V75.624C200.313 75.624 199.157 75.2367 198.37 74.7692L190.201 88.5268ZM201.618 68.224C201.629 68.224 201.436 68.2246 201.123 68.1134C200.794 67.9965 200.476 67.8063 200.218 67.5744L210.921 55.6816C208.207 53.2383 204.893 52.224 201.618 52.224V68.224ZM200.218 67.5744C200.018 67.3941 199.808 67.1347 199.649 66.8177C199.495 66.5088 199.452 66.2727 199.443 66.192L215.336 64.344C214.956 61.0716 213.519 58.0193 210.921 55.6816L200.218 67.5744ZM207.39 57.268H195.586V73.268H207.39V57.268ZM203.375 67.0911C203.419 66.9044 203.438 66.9252 203.356 67.0687C203.267 67.2263 203.099 67.453 202.839 67.6698L192.596 55.3782C189.932 57.5986 188.478 60.5304 187.796 63.4449L203.375 67.0911ZM202.74 67.7513C202.54 67.9124 202.291 68.0511 202.028 68.1385C201.906 68.1792 201.804 68.2013 201.729 68.2128C201.655 68.2241 201.615 68.224 201.618 68.224V52.224C198.469 52.224 195.344 53.1612 192.696 55.2967L202.74 67.7513ZM239.335 81.18L244.371 87.3955L244.371 87.3955L239.335 81.18ZM240.479 69.636L234.467 74.9144L234.499 74.9513L234.532 74.9877L240.479 69.636ZM235.071 66.464L232.78 74.129L232.797 74.134L232.813 74.1389L235.071 66.464ZM230.547 65.112L232.837 57.447L232.8 57.4357L232.762 57.4247L230.547 65.112ZM228.311 60.848L223.697 54.3123L223.603 54.3788L223.511 54.448L228.311 60.848ZM234.395 61.316L229.908 67.9393L230.03 68.0219L230.155 68.1L234.395 61.316ZM236.683 64.124L229.139 66.7866L232.078 75.1153L240.076 71.3685L236.683 64.124ZM242.455 61.42L245.848 68.6645L252.497 65.55L249.963 58.6595L242.455 61.42ZM237.983 55.96L233.702 62.7186L233.768 62.7599L233.834 62.8001L237.983 55.96ZM225.087 55.128L228.35 62.4321L228.414 62.4034L228.478 62.3735L225.087 55.128ZM221.811 68.076L215.677 73.2115L215.706 73.2471L215.737 73.2823L221.811 68.076ZM227.167 71.248L224.984 78.9445L224.998 78.9486L225.013 78.9526L227.167 71.248ZM232.003 72.6L229.849 80.3046L229.861 80.3081L232.003 72.6ZM227.219 76.344L222.655 82.915L222.655 82.915L227.219 76.344ZM224.255 72.756L231.474 69.3102L228.041 62.117L220.836 65.5234L224.255 72.756ZM218.535 75.46L215.116 68.2274L208.702 71.2594L210.945 77.9898L218.535 75.46ZM223.215 81.44L218.848 88.1429L218.906 88.1811L218.966 88.2183L223.215 81.44ZM231.379 91.624C235.997 91.624 240.585 90.4637 244.371 87.3955L234.298 74.9645C234.063 75.155 233.347 75.624 231.379 75.624V91.624ZM244.371 87.3955C248.295 84.2156 250.351 79.7807 250.351 74.784H234.351C234.351 74.9326 234.337 75.0039 234.334 75.0148C234.333 75.0229 234.338 74.9945 234.361 74.947C234.383 74.8991 234.406 74.8678 234.413 74.8592C234.418 74.8526 234.389 74.8905 234.298 74.9645L244.371 87.3955ZM250.351 74.784C250.351 70.9685 249.127 67.2863 246.425 64.2843L234.532 74.9877C234.515 74.9688 234.483 74.9294 234.448 74.8706C234.412 74.8114 234.384 74.751 234.364 74.6969C234.345 74.6437 234.34 74.615 234.341 74.621C234.343 74.6284 234.351 74.6798 234.351 74.784H250.351ZM246.49 64.3576C243.985 61.5042 240.711 59.784 237.328 58.7891L232.813 74.1389C233.472 74.3328 233.893 74.5308 234.143 74.6776C234.384 74.8189 234.463 74.9095 234.467 74.9144L246.49 64.3576ZM237.361 58.799L232.837 57.447L228.256 72.777L232.78 74.129L237.361 58.799ZM232.762 57.4247C232.236 57.2732 232.661 57.3005 233.357 57.8787C233.755 58.2094 234.31 58.7785 234.762 59.6446C235.233 60.5476 235.479 61.5575 235.479 62.564H219.479C219.479 65.9737 221.194 68.5757 223.134 70.1873C224.853 71.6148 226.812 72.3615 228.332 72.7993L232.762 57.4247ZM235.479 62.564C235.479 63.2331 235.346 64.1294 234.885 65.0792C234.418 66.042 233.759 66.7618 233.111 67.248L223.511 54.448C220.827 56.461 219.479 59.4651 219.479 62.564H235.479ZM232.924 67.3837C231.726 68.2293 230.718 68.224 230.703 68.224V52.224C228.676 52.224 226.074 52.6347 223.697 54.3123L232.924 67.3837ZM230.703 68.224C230.689 68.224 230.575 68.2211 230.397 68.1685C230.214 68.1145 230.044 68.0313 229.908 67.9393L238.881 54.6926C236.39 53.0052 233.574 52.224 230.703 52.224V68.224ZM230.155 68.1C230.027 68.0202 229.814 67.8585 229.597 67.5914C229.376 67.3205 229.226 67.0344 229.139 66.7866L244.227 61.4614C243.178 58.4906 241.203 56.1372 238.635 54.532L230.155 68.1ZM240.076 71.3685L245.848 68.6645L239.061 54.1755L233.289 56.8795L240.076 71.3685ZM249.963 58.6595C248.482 54.6296 245.822 51.3583 242.132 49.1199L233.834 62.8001C234.373 63.127 234.694 63.4957 234.946 64.1805L249.963 58.6595ZM242.263 49.2014C238.746 46.9738 234.794 45.984 230.703 45.984V61.984C232.158 61.984 233.06 62.3115 233.702 62.7186L242.263 49.2014ZM230.703 45.984C227.62 45.984 224.556 46.5431 221.695 47.8825L228.478 62.3735C228.876 62.1875 229.556 61.984 230.703 61.984V45.984ZM221.823 47.8239C219.009 49.0815 216.52 51.0019 214.688 53.6785L227.893 62.7135C227.896 62.7088 227.904 62.6951 227.944 62.6629C227.989 62.6271 228.108 62.5404 228.35 62.4321L221.823 47.8239ZM214.688 53.6785C212.779 56.4683 211.939 59.6247 211.939 62.824H227.939C227.939 62.7221 227.945 62.6555 227.95 62.6193C227.955 62.5837 227.959 62.5739 227.956 62.5843C227.952 62.5952 227.945 62.6171 227.932 62.6453C227.918 62.6735 227.904 62.6971 227.893 62.7135L214.688 53.6785ZM211.939 62.824C211.939 66.6425 213.179 70.2283 215.677 73.2115L227.945 62.9405C227.918 62.9087 227.913 62.8979 227.919 62.9083C227.926 62.9192 227.935 62.9377 227.942 62.959C227.95 62.9801 227.95 62.9876 227.948 62.974C227.945 62.9594 227.939 62.9118 227.939 62.824H211.939ZM215.737 73.2823C218.245 76.2086 221.539 77.9676 224.984 78.9445L229.349 63.5515C228.746 63.3805 228.374 63.2029 228.162 63.0776C227.961 62.9584 227.894 62.8808 227.885 62.8697L215.737 73.2823ZM225.013 78.9526L229.849 80.3046L234.157 64.8954L229.321 63.5434L225.013 78.9526ZM229.861 80.3081C230.207 80.404 229.603 80.3129 228.794 79.5933C228.34 79.1903 227.811 78.577 227.405 77.7212C226.992 76.8479 226.811 75.9381 226.811 75.096H242.811C242.811 72.0069 241.418 69.4076 239.424 67.6347C237.678 66.0831 235.671 65.316 234.144 64.8919L229.861 80.3081ZM226.811 75.096C226.811 74.6303 226.889 73.8439 227.298 72.934C227.727 71.9785 228.395 71.1695 229.184 70.5837C230.602 69.5308 231.766 69.644 231.379 69.644V85.644C233.279 85.644 236.159 85.3325 238.721 83.4303C241.73 81.1966 242.811 77.9279 242.811 75.096H226.811ZM231.379 69.644C231.377 69.644 231.399 69.644 231.438 69.6499C231.478 69.6558 231.527 69.6664 231.581 69.6832C231.698 69.7198 231.769 69.7643 231.782 69.773L222.655 82.915C225.249 84.7159 228.229 85.644 231.379 85.644V69.644ZM231.782 69.773C231.77 69.7649 231.748 69.749 231.709 69.7019C231.668 69.6514 231.581 69.5344 231.474 69.3102L217.035 76.2018C218.293 78.8378 220.141 81.1687 222.655 82.915L231.782 69.773ZM220.836 65.5234L215.116 68.2274L221.954 82.6926L227.674 79.9886L220.836 65.5234ZM210.945 77.9898C212.372 82.27 215.107 85.7057 218.848 88.1429L227.582 74.7371C226.746 74.193 226.361 73.642 226.124 72.9302L210.945 77.9898ZM218.966 88.2183C222.731 90.5785 226.968 91.624 231.379 91.624V75.624C229.549 75.624 228.344 75.2135 227.464 74.6617L218.966 88.2183ZM266.096 81.18L271.133 87.3955L271.133 87.3955L266.096 81.18ZM267.24 69.636L261.229 74.9144L261.261 74.9513L261.294 74.9877L267.24 69.636ZM261.832 66.464L259.542 74.129L259.558 74.134L259.575 74.1389L261.832 66.464ZM257.308 65.112L259.599 57.447L259.561 57.4357L259.523 57.4247L257.308 65.112ZM255.072 60.848L250.459 54.3123L250.365 54.3788L250.272 54.448L255.072 60.848ZM261.156 61.316L256.67 67.9393L256.791 68.0219L256.916 68.1L261.156 61.316ZM263.444 64.124L255.9 66.7866L258.84 75.1153L266.838 71.3685L263.444 64.124ZM269.216 61.42L272.61 68.6645L279.258 65.55L276.725 58.6595L269.216 61.42ZM264.744 55.96L260.464 62.7186L260.529 62.7599L260.595 62.8001L264.744 55.96ZM251.848 55.128L255.112 62.4321L255.176 62.4034L255.24 62.3735L251.848 55.128ZM248.572 68.076L242.438 73.2115L242.468 73.2471L242.498 73.2823L248.572 68.076ZM253.928 71.248L251.746 78.9445L251.76 78.9486L251.774 78.9526L253.928 71.248ZM258.764 72.6L256.61 80.3046L256.623 80.3081L258.764 72.6ZM253.98 76.344L249.417 82.915L249.417 82.915L253.98 76.344ZM251.016 72.756L258.236 69.3102L254.803 62.117L247.597 65.5234L251.016 72.756ZM245.296 75.46L241.877 68.2274L235.463 71.2594L237.707 77.9898L245.296 75.46ZM249.976 81.44L245.609 88.1429L245.668 88.1811L245.727 88.2183L249.976 81.44ZM258.14 91.624C262.758 91.624 267.347 90.4637 271.133 87.3955L261.06 74.9645C260.825 75.155 260.109 75.624 258.14 75.624V91.624ZM271.133 87.3955C275.057 84.2156 277.112 79.7807 277.112 74.784H261.112C261.112 74.9326 261.098 75.0039 261.096 75.0148C261.094 75.0229 261.1 74.9945 261.122 74.947C261.145 74.8991 261.168 74.8678 261.175 74.8592C261.18 74.8526 261.151 74.8905 261.06 74.9645L271.133 87.3955ZM277.112 74.784C277.112 70.9685 275.888 67.2863 273.187 64.2843L261.294 74.9877C261.277 74.9688 261.245 74.9294 261.21 74.8706C261.174 74.8114 261.146 74.751 261.126 74.6969C261.107 74.6437 261.102 74.615 261.103 74.621C261.104 74.6284 261.112 74.6798 261.112 74.784H277.112ZM273.252 64.3576C270.746 61.5042 267.473 59.784 264.09 58.7891L259.575 74.1389C260.234 74.3328 260.655 74.5308 260.905 74.6776C261.146 74.8189 261.225 74.9095 261.229 74.9144L273.252 64.3576ZM264.123 58.799L259.599 57.447L255.018 72.777L259.542 74.129L264.123 58.799ZM259.523 57.4247C258.997 57.2732 259.422 57.3005 260.119 57.8787C260.517 58.2094 261.071 58.7785 261.524 59.6446C261.995 60.5476 262.24 61.5575 262.24 62.564H246.24C246.24 65.9737 247.956 68.5757 249.896 70.1873C251.615 71.6148 253.574 72.3615 255.093 72.7993L259.523 57.4247ZM262.24 62.564C262.24 63.2331 262.107 64.1294 261.647 65.0792C261.18 66.042 260.521 66.7618 259.872 67.248L250.272 54.448C247.588 56.461 246.24 59.4651 246.24 62.564H262.24ZM259.686 67.3837C258.488 68.2293 257.48 68.224 257.464 68.224V52.224C255.438 52.224 252.835 52.6347 250.459 54.3123L259.686 67.3837ZM257.464 68.224C257.451 68.224 257.336 68.2211 257.158 68.1685C256.976 68.1145 256.805 68.0313 256.67 67.9393L265.643 54.6926C263.152 53.0052 260.336 52.224 257.464 52.224V68.224ZM256.916 68.1C256.789 68.0202 256.576 67.8585 256.358 67.5914C256.138 67.3205 255.988 67.0344 255.9 66.7866L270.988 61.4614C269.94 58.4906 267.965 56.1372 265.396 54.532L256.916 68.1ZM266.838 71.3685L272.61 68.6645L265.823 54.1755L260.051 56.8795L266.838 71.3685ZM276.725 58.6595C275.243 54.6296 272.584 51.3583 268.893 49.1199L260.595 62.8001C261.134 63.127 261.456 63.4957 261.708 64.1805L276.725 58.6595ZM269.025 49.2014C265.507 46.9738 261.556 45.984 257.464 45.984V61.984C258.919 61.984 259.821 62.3115 260.464 62.7186L269.025 49.2014ZM257.464 45.984C254.381 45.984 251.318 46.5431 248.457 47.8825L255.24 62.3735C255.637 62.1875 256.318 61.984 257.464 61.984V45.984ZM248.585 47.8239C245.77 49.0815 243.281 51.0019 241.45 53.6785L254.655 62.7135C254.658 62.7088 254.666 62.6951 254.706 62.6629C254.75 62.6271 254.869 62.5404 255.112 62.4321L248.585 47.8239ZM241.45 53.6785C239.541 56.4683 238.7 59.6247 238.7 62.824H254.7C254.7 62.7221 254.707 62.6555 254.712 62.6193C254.717 62.5837 254.72 62.5739 254.717 62.5843C254.714 62.5952 254.707 62.6171 254.693 62.6453C254.68 62.6735 254.666 62.6971 254.655 62.7135L241.45 53.6785ZM238.7 62.824C238.7 66.6425 239.941 70.2283 242.438 73.2115L254.706 62.9405C254.68 62.9087 254.675 62.8979 254.681 62.9083C254.687 62.9192 254.696 62.9377 254.704 62.959C254.711 62.9801 254.712 62.9876 254.709 62.974C254.707 62.9594 254.7 62.9118 254.7 62.824H238.7ZM242.498 73.2823C245.006 76.2086 248.301 77.9676 251.746 78.9445L256.111 63.5515C255.508 63.3805 255.136 63.2029 254.924 63.0776C254.723 62.9584 254.656 62.8808 254.646 62.8697L242.498 73.2823ZM251.774 78.9526L256.61 80.3046L260.918 64.8954L256.082 63.5434L251.774 78.9526ZM256.623 80.3081C256.968 80.404 256.365 80.3129 255.555 79.5933C255.102 79.1903 254.572 78.577 254.167 77.7212C253.753 76.8479 253.572 75.9381 253.572 75.096H269.572C269.572 72.0069 268.18 69.4076 266.185 67.6347C264.44 66.0831 262.432 65.316 260.905 64.8919L256.623 80.3081ZM253.572 75.096C253.572 74.6303 253.651 73.8439 254.06 72.934C254.489 71.9785 255.157 71.1695 255.946 70.5837C257.364 69.5308 258.528 69.644 258.14 69.644V85.644C260.041 85.644 262.921 85.3325 265.483 83.4303C268.492 81.1966 269.572 77.9279 269.572 75.096H253.572ZM258.14 69.644C258.139 69.644 258.16 69.644 258.2 69.6499C258.24 69.6558 258.289 69.6664 258.343 69.6832C258.46 69.7198 258.531 69.7643 258.544 69.773L249.417 82.915C252.011 84.7159 254.991 85.644 258.14 85.644V69.644ZM258.544 69.773C258.532 69.7649 258.51 69.749 258.471 69.7019C258.429 69.6514 258.343 69.5344 258.236 69.3102L243.796 76.2018C245.055 78.8378 246.903 81.1687 249.417 82.915L258.544 69.773ZM247.597 65.5234L241.877 68.2274L248.715 82.6926L254.435 79.9886L247.597 65.5234ZM237.707 77.9898C239.134 82.27 241.868 85.7057 245.609 88.1429L254.343 74.7371C253.508 74.193 253.123 73.642 252.886 72.9302L237.707 77.9898ZM245.727 88.2183C249.492 90.5785 253.73 91.624 258.14 91.624V75.624C256.311 75.624 255.106 75.2135 254.225 74.6617L245.727 88.2183Z" fill="white"/>
</mask>
<g mask="url(#mask0_1_91)">
<g filter="url(#filter0_f_1_91)">
<rect x="48.4351" y="50.3685" width="228.237" height="36.8166" fill="url(#paint0_linear_1_91)"/>
</g>
</g>
<defs>
<filter id="filter0_f_1_91" x="-1.56494" y="0.358154" width="328.239" height="136.827" filterUnits="userSpaceOnUse" color-interpolation-filters="sRGB">
<feFlood flood-opacity="0" result="BackgroundImageFix"/>
<feBlend mode="normal" in="SourceGraphic" in2="BackgroundImageFix" result="shape"/>
<feGaussianBlur stdDeviation="25" result="effect1_foregroundBlur_1_91"/>
</filter>
<linearGradient id="paint0_linear_1_91" x1="47.1851" y1="68.7768" x2="275.172" y2="68.7767" gradientUnits="userSpaceOnUse">
<stop stop-color="#44BCFF"/>
<stop offset="0.234375" stop-color="#44B0FF"/>
<stop offset="0.489583" stop-color="#FF44EC"/>
<stop offset="0.739583" stop-color="#FF44EC"/>
<stop offset="1" stop-color="#FF675E"/>
</linearGradient>
</defs>
</svg>
